<svg width="13.966797" height="17.042725" viewBox="0 0 13.9668 17.0427" fill="none" xmlns="http://www.w3.org/2000/svg" xmlns:xlink="http://www.w3.org/1999/xlink">
	<desc>
			Created with Pixso.
	</desc>
	<defs/>
	<path id="Vector" d="M6.98 0C3.12 0 0 3.12 0 6.98C0 8.82 1.04 11.25 2.37 13.24C3.8 15.37 5.63 17.04 6.98 17.04C8.33 17.04 10.16 15.37 11.59 13.24C12.92 11.25 13.96 8.82 13.96 6.98C13.96 3.12 10.83 0 6.98 0ZM6.98 9.67C5.5 9.67 4.29 8.46 4.29 6.98C4.29 5.49 5.5 4.29 6.98 4.29C8.46 4.29 9.67 5.49 9.67 6.98C9.67 8.46 8.46 9.67 6.98 9.67Z" fill="#6F73EE" fill-opacity="1.000000" fill-rule="evenodd"/>
</svg>

