<svg width="25.000000" height="24.971924" viewBox="0 0 25 24.9719" fill="none" xmlns="http://www.w3.org/2000/svg" xmlns:xlink="http://www.w3.org/1999/xlink">
	<desc>
			Created with Pixso.
	</desc>
	<defs/>
	<path id="Vector" d="M25 12.5L22.86 9.71L23.33 6.25L20.07 4.95L18.77 1.68L15.31 2.16L12.5 0L9.71 2.13L6.25 1.66L4.95 4.92L1.68 6.22L2.16 9.68L0 12.5L2.13 15.28L1.66 18.75L4.92 20.04L6.22 23.31L9.68 22.83L12.47 24.97L15.25 22.83L18.72 23.31L20.01 20.04L23.28 18.72L22.8 15.25L25 12.5ZM11.48 16.55L7.32 13.11L8.22 12.02L11.31 14.55L16.61 8.44L17.67 9.37L11.48 16.55Z" fill="#6F73EE" fill-opacity="1.000000" fill-rule="nonzero"/>
</svg>
